<svg width="22" height="22" viewBox="0 0 22 22" fill="none" xmlns="http://www.w3.org/2000/svg">
<path d="M7.2789 8.72266C7.79882 8.72266 8.27148 8.76562 8.70117 8.86016C9.12656 8.95039 9.49179 9.10078 9.80117 9.31133C10.1062 9.51758 10.3426 9.79688 10.5102 10.1406C10.6777 10.4844 10.7594 10.9141 10.7594 11.4211C10.7594 11.9711 10.6348 12.4266 10.3855 12.7961C10.1363 13.1613 9.76679 13.4621 9.27265 13.6941C9.94296 13.8875 10.4414 14.227 10.768 14.7082C11.0988 15.1937 11.2621 15.7738 11.2621 16.457C11.2621 17.0113 11.1547 17.484 10.9441 17.8836C10.7293 18.2875 10.4414 18.6184 10.0805 18.8719C9.71953 19.1254 9.30702 19.3145 8.84296 19.4391C8.3832 19.5594 7.90624 19.6238 7.4207 19.6238H2.14413V8.72266H7.2789ZM6.96952 13.1227C7.39492 13.1227 7.74726 13.0238 8.02656 12.8176C8.30156 12.6156 8.43476 12.2848 8.43476 11.825C8.43476 11.5715 8.39179 11.3609 8.30156 11.1977C8.20702 11.0344 8.08671 10.9098 7.93203 10.8195C7.77734 10.725 7.60546 10.6648 7.40351 10.6262C7.20585 10.5875 6.9996 10.5703 6.78476 10.5703H4.54179V13.1184H6.96952V13.1227ZM7.10273 17.7633C7.33906 17.7633 7.56249 17.7418 7.77734 17.6945C7.99218 17.6473 8.18124 17.5742 8.34452 17.4625C8.50351 17.3551 8.63671 17.2133 8.73554 17.0285C8.83437 16.8437 8.87734 16.6074 8.87734 16.3238C8.87734 15.7609 8.71835 15.3656 8.40468 15.1207C8.09101 14.8801 7.66992 14.7641 7.15429 14.7641H4.54609V17.7633H7.10273Z" fill="#06131B"/>
<path d="M14.6867 17.7248C15.0133 18.0428 15.4816 18.2018 16.0875 18.2018C16.5258 18.2018 16.9039 18.09 17.2176 17.8709C17.5312 17.6518 17.7246 17.4154 17.7976 17.1705H19.7055C19.4004 18.1201 18.932 18.799 18.3004 19.2072C17.673 19.6154 16.9082 19.8217 16.0144 19.8217C15.3914 19.8217 14.8328 19.7229 14.3301 19.5209C13.8273 19.3189 13.4105 19.0396 13.0582 18.6744C12.7144 18.3049 12.448 17.8709 12.259 17.3596C12.0699 16.8525 11.9754 16.2896 11.9754 15.6795C11.9754 15.0908 12.0742 14.5365 12.2676 14.0295C12.4652 13.5182 12.7359 13.0756 13.0926 12.7061C13.4492 12.3322 13.8746 12.04 14.373 11.8252C14.8672 11.6104 15.4129 11.5029 16.0187 11.5029C16.6847 11.5029 17.2691 11.6318 17.7719 11.8939C18.2703 12.1518 18.6785 12.4998 19.0008 12.9381C19.323 13.3764 19.5508 13.8748 19.6926 14.4334C19.8344 14.992 19.8859 15.5764 19.8429 16.1908H14.1496C14.1496 16.8182 14.3601 17.4111 14.6867 17.7248ZM17.1746 13.5826C16.9168 13.299 16.4828 13.1443 15.95 13.1443C15.6019 13.1443 15.3183 13.2045 15.0863 13.3205C14.8629 13.4365 14.6781 13.5826 14.5363 13.7545C14.3945 13.9307 14.3 14.1154 14.2441 14.3088C14.1883 14.5021 14.1539 14.674 14.1453 14.8287H17.673C17.6258 14.2787 17.4367 13.8705 17.1746 13.5826Z" fill="#06131B"/>
<path d="M18.1242 9.45312H13.707V10.5273H18.1242V9.45312Z" fill="#06131B"/>
</svg>
